# xmcd CD database file
#
# Track frame offsets:
#	150
#	18510
#	33063
#	53185
#	67540
#	86543
#	101610
#	123368
#	139069
#	161328
#	178443
#	197073
#	216122
#	233574
#	254245
#
# Disc length: 3801 seconds
#
# Revision: 1
# Processed by: cddbd v1.4PL0 Copyright (c) Steve Scherf et al.
# Submitted via: CDex 1.40Beta9
#
DISCID=c90ed70f
DTITLE=Henry Townsend - St. Louis Blues Ace
DYEAR=1900
DGENRE=Blues
TTITLE0=Big City Blues
TTITLE1=People Need People
TTITLE2=Dirty Trick Blues
TTITLE3=I'm Having Bad Luck
TTITLE4=Too Pretty For Me
TTITLE5=I'm Gonna Stay
TTITLE6=Your Doggone Ways
TTITLE7=The Three Gs Blues
TTITLE8=Night Is Falling
TTITLE9=Hey Dear Brother
TTITLE10=Heart Broken Man Blues
TTITLE11=Slap Her Down
TTITLE12=The Cut Back Blues
TTITLE13=Down By That Muddy Pond
TTITLE14=Baby Boy Blues
EXTD=ID3G: 0
EXTT0=
EXTT1=
EXTT2=
EXTT3=
EXTT4=
EXTT5=
EXTT6=
EXTT7=
EXTT8=
EXTT9=
EXTT10=
EXTT11=
EXTT12=
EXTT13=
EXTT14=
PLAYORDER=
